<svg xmlns="http://www.w3.org/2000/svg" viewBox="0 0 512 512" id="three-leaf-clover"><path fill="#399349" d="m265.6 33.2-9.6 22-9.6-22C238.9 16.1 221.9 5 203.2 5c-26 0-47.2 21.1-47.2 47.2 0 40 17 78.1 46.7 104.9l53.3 48 53.3-48C339 130.3 356 92.2 356 52.2c0-26-21.1-47.2-47.2-47.2-18.7 0-35.7 11.1-43.2 28.2z"></path><path fill="#399349" d="M262.6 293.9 256 205l-6.2 83.4c-4.9 66.3-3.6 132.8 3.9 198.9 1.3 11.3 10.8 19.8 22.1 19.8 15 0 25.7-14.5 21.3-28.8-18.3-60-29.9-121.9-34.5-184.4z"></path><path fill="#ffcb5c" d="M487 336c0 11 9 20 20 20-11 0-20 9-20 20 0-11-9-20-20-20 11 0 20-9 20-20zM25 69c0 11 9 20 20 20-11 0-20 9-20 20 0-11-9-20-20-20 11 0 20-9 20-20z"></path><path fill="#2b6e37" d="M356 52.2c0-26-21.1-47.2-47.2-47.2-18.7 0-35.7 11.1-43.2 28.2l-9.6 22V205l53.3-48C339 130.3 356 92.2 356 52.2z"></path><path fill="#47b85b" d="M356 52.2c0-26-21.1-47.2-47.2-47.2-18.7 0-35.7 11.1-43.2 28.2l-9.6 22-9.6-22C238.9 16.1 221.9 5 203.2 5c-26 0-47.2 21.1-47.2 47.2 0 5 .3 9.9.8 14.9 20.7 33 57.4 55 99.2 55s78.5-22 99.2-55c.5-5 .8-9.9.8-14.9z"></path><path fill="#399349" d="M356 52.2c0-26-21.1-47.2-47.2-47.2-18.7 0-35.7 11.1-43.2 28.2l-9.6 22V122c41.8 0 78.5-22 99.2-55 .5-4.9.8-9.8.8-14.8zM93.6 261.8l24 .5-16.6 17.3c-13 13.5-16.7 33.4-9.6 50.7 10 24.1 37.6 35.5 61.6 25.5 37-15.3 65.7-45.6 79-83.3l24-67.5-64.7-30.9c-36.1-17.2-77.8-18.3-114.8-3-24.1 10-35.5 37.6-25.5 61.6 7.2 17.3 23.9 28.8 42.6 29.1z"></path><path fill="#2b6e37" d="M76.5 171.1c-24.1 10-35.5 37.6-25.5 61.6 7.2 17.3 23.9 28.7 42.6 29.1l24 .5L256 205l-64.7-30.9c-36.1-17.2-77.8-18.3-114.8-3z"></path><path fill="#47b85b" d="M76.5 171.1c-24.1 10-35.5 37.6-25.5 61.6 7.2 17.3 23.9 28.7 42.6 29.1l24 .5-16.6 17.3c-13 13.5-16.7 33.4-9.6 50.7 10 24.1 37.6 35.5 61.6 25.5 4.6-1.9 9.1-4.1 13.4-6.4 22.6-31.7 28.8-74.1 12.8-112.7s-50.3-64.2-88.8-70.6c-4.6 1.4-9.3 3.1-13.9 5z"></path><path fill="#399349" d="M76.5 171.1c-24.1 10-35.5 37.6-25.5 61.6 7.2 17.3 23.9 28.7 42.6 29.1l24 .5 61.7-25.5c-16.1-38.8-50.3-64.2-88.8-70.6-4.7 1.3-9.4 3-14 4.9zM411 279.6l-16.6-17.3 24-.5c18.7-.4 35.5-11.8 42.6-29.1 10-24.1-1.5-51.7-25.5-61.6-37-15.3-78.7-14.2-114.8 3L256 205l23.9 67.6c13.3 37.7 42.1 68 79 83.3 24.1 10 51.7-1.5 61.6-25.5 7.2-17.4 3.5-37.3-9.5-50.8z"></path><path fill="#2b6e37" d="M358.9 355.9c24.1 10 51.7-1.5 61.6-25.5 7.2-17.3 3.4-37.2-9.6-50.7l-16.6-17.3L256 205l23.9 67.6c13.4 37.7 42.1 68 79 83.3z"></path><path fill="#47b85b" d="M358.9 355.9c24.1 10 51.7-1.5 61.6-25.5 7.2-17.3 3.4-37.2-9.6-50.7l-16.6-17.3 24-.5c18.7-.4 35.5-11.8 42.6-29.1 10-24.1-1.5-51.7-25.5-61.6-4.6-1.9-9.3-3.6-14-5-38.4 6.5-72.8 32-88.8 70.6-16 38.6-9.8 81 12.8 112.7 4.4 2.3 8.9 4.5 13.5 6.4z"></path><path fill="#399349" d="M358.9 355.9c24.1 10 51.7-1.5 61.6-25.5 7.2-17.3 3.4-37.2-9.6-50.7l-16.6-17.3-61.7-25.5c-16.1 38.8-9.8 81 12.8 112.7 4.4 2.2 8.9 4.4 13.5 6.3z"></path><path fill="#2b6e37" d="M262.6 293.9 256 205l-6.2 83.4c-2.2 30.4-3.2 60.9-2.8 91.4 3 .1 6 .2 9 .2 5.8 0 11.6-.3 17.3-.8-5-28.2-8.6-56.7-10.7-85.3z"></path></svg>